<svg xmlns="http://www.w3.org/2000/svg" version="1.1" xmlns:xlink="http://www.w3.org/1999/xlink" xmlns:svgjs="http://svgjs.dev/svgjs" width="2000" height="313" viewBox="0 0 2000 313"><g transform="matrix(1,0,0,1,0.842420212766001,0.6198991525423594)"><svg viewBox="0 0 376 59" data-background-color="#c9efc7" preserveAspectRatio="xMidYMid meet" height="313" width="2000" xmlns="http://www.w3.org/2000/svg" xmlns:xlink="http://www.w3.org/1999/xlink"><g id="tight-bounds" transform="matrix(1,0,0,1,-0.1583750000000066,-0.11684999999999945)"><svg viewBox="0 0 376.31675 59.2337" height="59.2337" width="376.31675"><g><svg></svg></g><g><svg viewBox="0 0 376.31675 59.2337" height="59.2337" width="376.31675"><g transform="matrix(1,0,0,1,-9.60163,-96.92678000000001)"><path d="M9.602 150.273v-53.346h376.316v53.346h-114.978l0-1.957h113.021v-49.432h-372.402v49.432l113.021 0 0 1.957z" fill="#528265" fill-rule="nonzero" stroke="none" stroke-width="1" stroke-linecap="butt" stroke-linejoin="miter" stroke-miterlimit="10" stroke-dasharray="" stroke-dashoffset="0" font-family="none" font-weight="none" font-size="none" text-anchor="none" style="mix-blend-mode: normal" data-fill-palette-color="tertiary"></path><g><path d="M132.089 153.282h-1.18l4.514-11.278h1.542l4.514 11.278h-1.18c-0.136 0-0.246-0.035-0.33-0.104-0.084-0.067-0.147-0.153-0.189-0.258v0l-3.256-8.415c-0.052-0.147-0.107-0.307-0.163-0.482-0.059-0.172-0.114-0.363-0.167-0.572v0c-0.063 0.21-0.121 0.404-0.173 0.582-0.052 0.178-0.105 0.341-0.157 0.487v0l-3.256 8.4c-0.031 0.094-0.091 0.178-0.18 0.252-0.09 0.073-0.203 0.11-0.339 0.11zM132.906 153.282h-0.833v-0.975h0.833zM138.962 149.947h-5.489l0.424-1.101h4.641zM140.362 153.282h-0.833v-0.975h0.833zM132.057 153.282h-1.604v-0.645c0-0.094 0.021-0.171 0.063-0.23 0.042-0.057 0.105-0.09 0.188-0.1v0l1.18-0.252zM133.74 153.282h-1.604l0.173-1.227 1.179 0.252c0.084 0.01 0.147 0.044 0.189 0.1 0.042 0.059 0.063 0.135 0.063 0.23v0zM140.252 153.282h-1.604v-0.645c0-0.094 0.021-0.171 0.063-0.23 0.042-0.057 0.105-0.09 0.188-0.1v0l1.18-0.252zM141.935 153.282h-1.604l0.173-1.227 1.18 0.252c0.084 0.01 0.147 0.044 0.188 0.1 0.042 0.059 0.063 0.135 0.063 0.23v0zM145.113 153.282h-1.4v-11.593h1.4zM144.185 153.282h-1.605v-0.645c0-0.094 0.021-0.171 0.063-0.23 0.042-0.057 0.105-0.09 0.189-0.1v0l1.18-0.252zM146.245 153.282h-1.604l0.173-1.227 1.18 0.252c0.084 0.01 0.147 0.044 0.188 0.1 0.042 0.059 0.063 0.135 0.063 0.23v0zM142.58 141.689h1.605l-0.173 1.227-1.18-0.252c-0.084-0.021-0.147-0.058-0.189-0.11-0.042-0.052-0.063-0.126-0.063-0.22v0zM149.501 153.282h-1.4v-11.593h1.4zM148.573 153.282h-1.604v-0.645c0-0.094 0.021-0.171 0.063-0.23 0.042-0.057 0.105-0.09 0.189-0.1v0l1.179-0.252zM150.634 153.282h-1.605l0.173-1.227 1.18 0.252c0.084 0.01 0.147 0.044 0.189 0.1 0.042 0.059 0.063 0.135 0.063 0.23v0zM146.969 141.689h1.604l-0.173 1.227-1.179-0.252c-0.084-0.021-0.147-0.058-0.189-0.11-0.042-0.052-0.063-0.126-0.063-0.22v0zM157.98 153.282h-1.4v-7.975h0.802c0.157 0 0.267 0.028 0.33 0.085 0.063 0.059 0.1 0.161 0.11 0.308v0l0.095 1.243c0.273-0.556 0.608-0.991 1.006-1.306 0.398-0.315 0.87-0.472 1.416-0.472v0c0.22 0 0.419 0.026 0.598 0.079 0.178 0.052 0.341 0.121 0.487 0.205v0l-0.173 1.053c-0.01 0.063-0.039 0.11-0.085 0.142-0.048 0.031-0.104 0.047-0.166 0.047v0c-0.073 0-0.215-0.024-0.425-0.072-0.21-0.046-0.393-0.069-0.551-0.069v0c-0.482 0-0.888 0.142-1.217 0.424-0.331 0.283-0.607 0.692-0.827 1.227v0zM159.112 153.282h-1.604l0.173-1.227 1.179 0.252c0.084 0.01 0.147 0.044 0.189 0.1 0.042 0.059 0.063 0.135 0.063 0.23v0zM157.052 153.282h-1.605v-0.645c0-0.094 0.021-0.171 0.063-0.23 0.042-0.057 0.105-0.09 0.189-0.1v0l1.18-0.252zM155.447 145.307h1.605l-0.173 1.227-1.18-0.252c-0.084-0.021-0.147-0.058-0.189-0.11-0.042-0.052-0.063-0.126-0.063-0.22v0zM164.618 153.282h-1.4v-7.975h1.4zM163.689 153.282h-1.604v-0.645c0-0.094 0.021-0.171 0.063-0.23 0.042-0.057 0.105-0.09 0.189-0.1v0l1.179-0.252zM165.75 153.282h-1.604l0.173-1.227 1.179 0.252c0.084 0.01 0.147 0.044 0.189 0.1 0.042 0.059 0.063 0.135 0.063 0.23v0zM162.085 145.307h1.604l-0.173 1.227-1.179-0.252c-0.084-0.021-0.147-0.058-0.189-0.11-0.042-0.052-0.063-0.126-0.063-0.22v0zM163.894 143.797v0c-0.262 0-0.493-0.1-0.692-0.299-0.199-0.199-0.299-0.43-0.299-0.692v0c0-0.273 0.1-0.509 0.299-0.708 0.199-0.199 0.43-0.299 0.692-0.299v0c0.273 0 0.509 0.1 0.708 0.299 0.199 0.199 0.299 0.435 0.299 0.708v0c0 0.262-0.1 0.493-0.299 0.692-0.199 0.199-0.435 0.299-0.708 0.299zM169.588 145.181v0c0.346 0 0.669 0.037 0.969 0.11 0.298 0.073 0.573 0.184 0.824 0.331v0h2.155v0.519c0 0.084-0.026 0.154-0.078 0.21-0.052 0.059-0.136 0.099-0.252 0.12v0l-0.897 0.126c0.178 0.357 0.267 0.739 0.268 1.148v0c0 0.524-0.131 0.977-0.393 1.359-0.262 0.384-0.619 0.681-1.07 0.89-0.451 0.21-0.96 0.315-1.526 0.315v0c-0.189 0-0.369-0.01-0.541-0.031-0.174-0.021-0.345-0.052-0.513-0.095v0c-0.168 0.105-0.296 0.217-0.384 0.337-0.09 0.122-0.135 0.24-0.135 0.355v0c0 0.199 0.082 0.346 0.246 0.441 0.161 0.094 0.376 0.159 0.644 0.195 0.266 0.038 0.557 0.062 0.872 0.072 0.315 0.01 0.619 0.026 0.912 0.047v0c0.482 0.042 0.926 0.115 1.331 0.221 0.403 0.105 0.728 0.283 0.975 0.534 0.245 0.252 0.368 0.619 0.368 1.101v0c0 0.503-0.163 0.957-0.487 1.363-0.325 0.403-0.768 0.723-1.328 0.959-0.562 0.235-1.2 0.352-1.913 0.352v0c-0.692 0-1.3-0.089-1.824-0.267-0.524-0.178-0.933-0.425-1.227-0.739-0.294-0.315-0.44-0.682-0.441-1.101v0c0-0.398 0.126-0.737 0.378-1.016 0.252-0.277 0.592-0.494 1.022-0.652v0c-0.22-0.105-0.398-0.246-0.535-0.424-0.136-0.178-0.204-0.414-0.204-0.708v0c0-0.241 0.094-0.488 0.283-0.739 0.189-0.252 0.435-0.456 0.739-0.614v0c-0.398-0.22-0.708-0.514-0.928-0.881-0.22-0.367-0.33-0.792-0.33-1.274v0c0-0.535 0.131-0.994 0.393-1.378 0.262-0.382 0.622-0.675 1.079-0.881 0.455-0.203 0.971-0.305 1.548-0.305zM172.073 153.722v0c0-0.304-0.123-0.522-0.368-0.654-0.247-0.13-0.544-0.216-0.89-0.258v0c-0.115-0.021-0.278-0.037-0.488-0.047-0.21-0.01-0.437-0.024-0.682-0.041-0.247-0.015-0.483-0.033-0.708-0.054-0.227-0.021-0.413-0.042-0.56-0.062v0c-0.294 0.147-0.535 0.322-0.724 0.525-0.189 0.206-0.283 0.45-0.283 0.733v0c0 0.262 0.094 0.491 0.283 0.686 0.189 0.193 0.456 0.34 0.803 0.44 0.346 0.099 0.745 0.148 1.195 0.148v0c0.461 0 0.874-0.055 1.236-0.164 0.361-0.111 0.649-0.272 0.866-0.481 0.214-0.21 0.321-0.467 0.32-0.771zM169.588 149.381v0c0.545 0 0.97-0.147 1.274-0.44 0.304-0.294 0.456-0.682 0.456-1.164v0c0-0.482-0.147-0.868-0.44-1.158-0.294-0.287-0.724-0.431-1.29-0.431v0c-0.566 0-0.996 0.144-1.29 0.431-0.294 0.289-0.44 0.675-0.44 1.158v0c0 0.482 0.152 0.87 0.456 1.164 0.304 0.294 0.729 0.44 1.274 0.44zM176.855 153.282h-1.4v-11.593h1.4v4.688c0.346-0.357 0.727-0.645 1.142-0.866 0.413-0.22 0.887-0.33 1.422-0.33v0c0.587 0 1.078 0.126 1.472 0.378 0.392 0.252 0.691 0.605 0.897 1.06 0.203 0.457 0.305 0.985 0.305 1.582v0 5.081h-1.4v-5.081c0-0.598-0.138-1.064-0.415-1.4-0.279-0.336-0.702-0.503-1.268-0.503v0c-0.409 0-0.794 0.1-1.154 0.299-0.363 0.199-0.696 0.472-1.001 0.818v0zM183.226 153.282h-1.605l0.173-1.227 1.18 0.252c0.084 0.01 0.147 0.044 0.189 0.1 0.042 0.059 0.063 0.135 0.063 0.23v0zM175.927 153.282h-1.604v-0.645c0-0.094 0.021-0.171 0.063-0.23 0.042-0.057 0.105-0.09 0.188-0.1v0l1.18-0.252zM174.323 141.689h1.604l-0.173 1.227-1.18-0.252c-0.084-0.021-0.147-0.058-0.188-0.11-0.042-0.052-0.063-0.126-0.063-0.22v0zM177.988 153.282h-1.605l0.173-1.227 1.18 0.252c0.084 0.01 0.147 0.044 0.189 0.1 0.042 0.059 0.063 0.135 0.063 0.23v0zM186.859 153.408v0c-0.629 0-1.114-0.176-1.453-0.529-0.342-0.35-0.513-0.856-0.513-1.516v0-4.876h-0.959c-0.084 0-0.154-0.026-0.211-0.079-0.059-0.052-0.088-0.131-0.088-0.236v0-0.55l1.305-0.173 0.331-2.454c0.021-0.178 0.126-0.267 0.314-0.268v0h0.708v2.737h2.281v1.023h-2.281v4.782c0 0.336 0.082 0.584 0.245 0.745 0.161 0.164 0.373 0.245 0.636 0.246v0c0.115 0 0.241-0.031 0.377-0.095 0.136-0.063 0.262-0.126 0.378-0.189 0.115-0.063 0.199-0.094 0.252-0.094v0c0.073 0 0.136 0.042 0.188 0.126v0l0.409 0.676c-0.241 0.22-0.532 0.395-0.871 0.526-0.342 0.132-0.691 0.198-1.048 0.198zM192.27 153.408v0c-0.378 0-0.799-0.042-1.264-0.126-0.468-0.084-0.869-0.189-1.205-0.315v0-1.164l0.692 0.158c0.136 0.094 0.354 0.191 0.654 0.289 0.298 0.101 0.646 0.151 1.045 0.151v0c0.598 0 1.038-0.124 1.321-0.371 0.283-0.245 0.425-0.546 0.425-0.903v0c0-0.315-0.094-0.556-0.283-0.724-0.189-0.168-0.44-0.304-0.755-0.409-0.315-0.105-0.655-0.215-1.023-0.33v0c-0.378-0.126-0.724-0.273-1.038-0.44-0.315-0.168-0.566-0.386-0.755-0.655-0.189-0.266-0.283-0.604-0.283-1.013v0c0-0.472 0.124-0.886 0.371-1.242 0.245-0.357 0.581-0.634 1.007-0.834 0.424-0.199 0.903-0.299 1.437-0.299v0c0.304 0 0.643 0.037 1.017 0.11 0.371 0.073 0.777 0.184 1.217 0.331v0 0.943l-0.834-0.11c-0.22-0.063-0.443-0.115-0.667-0.157-0.227-0.042-0.445-0.063-0.654-0.063v0c-0.304 0-0.574 0.047-0.808 0.142-0.237 0.094-0.424 0.225-0.56 0.393-0.136 0.168-0.204 0.362-0.205 0.582v0c0 0.294 0.113 0.526 0.34 0.698 0.224 0.174 0.499 0.314 0.824 0.419 0.325 0.105 0.634 0.204 0.928 0.299v0c0.346 0.105 0.674 0.241 0.985 0.408 0.308 0.168 0.562 0.388 0.761 0.661 0.199 0.273 0.299 0.629 0.299 1.07v0c0 0.472-0.123 0.897-0.368 1.274-0.247 0.378-0.594 0.676-1.038 0.896-0.447 0.22-0.974 0.33-1.583 0.331zM194.001 147.415l-0.158-1.18 1.007 0.205v1.226h-0.519c-0.105 0-0.184-0.023-0.236-0.069-0.052-0.048-0.084-0.109-0.094-0.182zM190.65 151.143l0.157 1.179-1.006-0.204v-1.227h0.519c0.115 0 0.197 0.023 0.245 0.069 0.046 0.048 0.074 0.109 0.085 0.183zM202.904 153.282h-1.4v-7.975h0.802c0.157 0 0.267 0.028 0.33 0.085 0.063 0.059 0.1 0.161 0.11 0.308v0l0.095 1.243c0.273-0.556 0.608-0.991 1.006-1.306 0.398-0.315 0.87-0.472 1.416-0.472v0c0.22 0 0.419 0.026 0.598 0.079 0.178 0.052 0.341 0.121 0.487 0.205v0l-0.173 1.053c-0.01 0.063-0.039 0.11-0.085 0.142-0.048 0.031-0.104 0.047-0.166 0.047v0c-0.073 0-0.215-0.024-0.425-0.072-0.21-0.046-0.393-0.069-0.551-0.069v0c-0.482 0-0.888 0.142-1.217 0.424-0.331 0.283-0.607 0.692-0.827 1.227v0zM204.036 153.282h-1.604l0.173-1.227 1.179 0.252c0.084 0.01 0.147 0.044 0.189 0.1 0.042 0.059 0.063 0.135 0.063 0.23v0zM201.976 153.282h-1.605v-0.645c0-0.094 0.021-0.171 0.063-0.23 0.042-0.057 0.105-0.09 0.189-0.1v0l1.18-0.252zM200.371 145.307h1.605l-0.173 1.227-1.18-0.252c-0.084-0.021-0.147-0.058-0.189-0.11-0.042-0.052-0.063-0.126-0.063-0.22v0zM210.91 153.392v0c-0.766 0-1.433-0.173-2.004-0.519-0.573-0.346-1.016-0.839-1.331-1.479-0.315-0.64-0.472-1.395-0.472-2.265v0c0-0.745 0.152-1.416 0.457-2.013 0.304-0.598 0.737-1.07 1.299-1.416 0.56-0.346 1.217-0.519 1.972-0.519v0c0.661 0 1.237 0.147 1.731 0.441 0.493 0.294 0.879 0.705 1.157 1.233 0.277 0.531 0.415 1.163 0.416 1.897v0c0 0.22-0.023 0.367-0.07 0.44-0.048 0.073-0.141 0.11-0.276 0.11v0h-5.301c0 0.031 0 0.065 0 0.101 0 0.038 0 0.072 0 0.104v0c0.052 0.881 0.299 1.565 0.739 2.051 0.44 0.489 1.038 0.733 1.793 0.733v0c0.325 0 0.648-0.066 0.969-0.198 0.319-0.13 0.602-0.258 0.849-0.384 0.245-0.126 0.421-0.189 0.526-0.189v0c0.115 0 0.204 0.042 0.267 0.126v0l0.393 0.519c-0.21 0.273-0.49 0.5-0.839 0.683-0.352 0.185-0.728 0.321-1.127 0.409-0.398 0.09-0.781 0.135-1.148 0.135zM208.535 148.421v0h4.341c0-0.65-0.178-1.18-0.535-1.588-0.357-0.409-0.849-0.613-1.478-0.614v0c-0.682 0-1.216 0.194-1.605 0.582-0.388 0.388-0.629 0.928-0.723 1.62zM217.8 153.408v0c-0.378 0-0.799-0.042-1.265-0.126-0.468-0.084-0.869-0.189-1.205-0.315v0-1.164l0.692 0.158c0.136 0.094 0.354 0.191 0.655 0.289 0.298 0.101 0.646 0.151 1.044 0.151v0c0.598 0 1.038-0.124 1.321-0.371 0.283-0.245 0.425-0.546 0.425-0.903v0c0-0.315-0.094-0.556-0.283-0.724-0.189-0.168-0.44-0.304-0.755-0.409-0.315-0.105-0.655-0.215-1.023-0.33v0c-0.378-0.126-0.724-0.273-1.038-0.44-0.315-0.168-0.566-0.386-0.755-0.655-0.189-0.266-0.283-0.604-0.283-1.013v0c0-0.472 0.124-0.886 0.371-1.242 0.245-0.357 0.581-0.634 1.007-0.834 0.424-0.199 0.903-0.299 1.438-0.299v0c0.304 0 0.643 0.037 1.016 0.11 0.371 0.073 0.777 0.184 1.217 0.331v0 0.943l-0.833-0.11c-0.22-0.063-0.443-0.115-0.667-0.157-0.227-0.042-0.445-0.063-0.655-0.063v0c-0.304 0-0.574 0.047-0.808 0.142-0.237 0.094-0.424 0.225-0.56 0.393-0.136 0.168-0.204 0.362-0.205 0.582v0c0 0.294 0.113 0.526 0.34 0.698 0.224 0.174 0.499 0.314 0.824 0.419 0.325 0.105 0.634 0.204 0.928 0.299v0c0.346 0.105 0.674 0.241 0.985 0.408 0.308 0.168 0.562 0.388 0.761 0.661 0.199 0.273 0.299 0.629 0.299 1.07v0c0 0.472-0.123 0.897-0.368 1.274-0.247 0.378-0.594 0.676-1.038 0.896-0.447 0.22-0.974 0.33-1.582 0.331zM219.53 147.415l-0.157-1.18 1.006 0.205v1.226h-0.519c-0.105 0-0.184-0.023-0.236-0.069-0.052-0.048-0.084-0.109-0.094-0.182zM216.179 151.143l0.158 1.179-1.007-0.204v-1.227h0.519c0.115 0 0.197 0.023 0.246 0.069 0.046 0.048 0.074 0.109 0.084 0.183zM225.712 153.392v0c-0.766 0-1.433-0.173-2.004-0.519-0.573-0.346-1.016-0.839-1.331-1.479-0.315-0.64-0.472-1.395-0.472-2.265v0c0-0.745 0.152-1.416 0.456-2.013 0.304-0.598 0.737-1.07 1.3-1.416 0.56-0.346 1.217-0.519 1.972-0.519v0c0.661 0 1.237 0.147 1.73 0.441 0.493 0.294 0.879 0.705 1.158 1.233 0.277 0.531 0.415 1.163 0.415 1.897v0c0 0.22-0.023 0.367-0.069 0.44-0.048 0.073-0.141 0.11-0.277 0.11v0h-5.301c0 0.031 0 0.065 0 0.101 0 0.038 0 0.072 0 0.104v0c0.052 0.881 0.299 1.565 0.74 2.051 0.44 0.489 1.038 0.733 1.793 0.733v0c0.325 0 0.648-0.066 0.969-0.198 0.319-0.13 0.602-0.258 0.849-0.384 0.245-0.126 0.421-0.189 0.525-0.189v0c0.115 0 0.204 0.042 0.268 0.126v0l0.393 0.519c-0.21 0.273-0.49 0.5-0.84 0.683-0.352 0.185-0.728 0.321-1.126 0.409-0.398 0.09-0.781 0.135-1.148 0.135zM223.336 148.421v0h4.342c0-0.65-0.178-1.18-0.535-1.588-0.357-0.409-0.849-0.613-1.479-0.614v0c-0.682 0-1.216 0.194-1.604 0.582-0.388 0.388-0.629 0.928-0.724 1.62zM232.444 153.282h-1.4v-7.975h0.802c0.157 0 0.267 0.028 0.331 0.085 0.063 0.059 0.1 0.161 0.11 0.308v0l0.094 1.243c0.273-0.556 0.608-0.991 1.007-1.306 0.398-0.315 0.87-0.472 1.415-0.472v0c0.22 0 0.419 0.026 0.598 0.079 0.178 0.052 0.341 0.121 0.488 0.205v0l-0.173 1.053c-0.01 0.063-0.039 0.11-0.085 0.142-0.048 0.031-0.104 0.047-0.167 0.047v0c-0.073 0-0.215-0.024-0.425-0.072-0.21-0.046-0.393-0.069-0.55-0.069v0c-0.482 0-0.888 0.142-1.218 0.424-0.331 0.283-0.607 0.692-0.827 1.227v0zM233.577 153.282h-1.605l0.173-1.227 1.18 0.252c0.084 0.01 0.147 0.044 0.189 0.1 0.042 0.059 0.063 0.135 0.063 0.23v0zM231.516 153.282h-1.605v-0.645c0-0.094 0.021-0.171 0.063-0.23 0.042-0.057 0.105-0.09 0.189-0.1v0l1.18-0.252zM229.911 145.307h1.605l-0.173 1.227-1.18-0.252c-0.084-0.021-0.147-0.058-0.189-0.11-0.042-0.052-0.063-0.126-0.063-0.22v0zM241.441 153.282h-1.258l-3.256-7.975h1.148c0.115 0 0.21 0.028 0.283 0.085 0.073 0.059 0.126 0.13 0.158 0.214v0l2.013 5.128c0.052 0.136 0.103 0.294 0.151 0.472 0.046 0.178 0.095 0.393 0.148 0.645v0c0.042-0.178 0.087-0.362 0.135-0.551 0.046-0.189 0.106-0.378 0.179-0.566v0l2.045-5.128c0.031-0.084 0.082-0.155 0.151-0.214 0.067-0.057 0.153-0.085 0.258-0.085v0h1.101zM239.082 145.7h-1.18v-0.393h1.18zM243.974 145.7h-1.18v-0.393h1.18zM236.392 145.307h1.605l-0.173 1.227-1.18-0.252c-0.084-0.021-0.147-0.058-0.189-0.11-0.042-0.052-0.063-0.126-0.063-0.22v0zM238.358 145.307h1.605v0.645c0 0.094-0.021 0.168-0.063 0.22-0.042 0.052-0.105 0.089-0.189 0.11v0l-1.18 0.252zM241.662 145.307h1.604l-0.173 1.227-1.18-0.252c-0.084-0.021-0.147-0.058-0.189-0.11-0.042-0.052-0.063-0.126-0.062-0.22v0zM243.628 145.307h1.604v0.645c0 0.094-0.021 0.168-0.063 0.22-0.042 0.052-0.105 0.089-0.188 0.11v0l-1.18 0.252zM249.652 153.392v0c-0.766 0-1.433-0.173-2.004-0.519-0.573-0.346-1.016-0.839-1.33-1.479-0.315-0.64-0.472-1.395-0.472-2.265v0c0-0.745 0.152-1.416 0.456-2.013 0.304-0.598 0.737-1.07 1.299-1.416 0.56-0.346 1.217-0.519 1.973-0.519v0c0.661 0 1.237 0.147 1.73 0.441 0.493 0.294 0.879 0.705 1.158 1.233 0.277 0.531 0.415 1.163 0.415 1.897v0c0 0.22-0.023 0.367-0.069 0.44-0.048 0.073-0.141 0.11-0.277 0.11v0h-5.301c0 0.031 0 0.065 0 0.101 0 0.038 0 0.072 0 0.104v0c0.052 0.881 0.299 1.565 0.739 2.051 0.44 0.489 1.038 0.733 1.793 0.733v0c0.325 0 0.648-0.066 0.969-0.198 0.319-0.13 0.602-0.258 0.85-0.384 0.245-0.126 0.421-0.189 0.525-0.189v0c0.115 0 0.204 0.042 0.267 0.126v0l0.394 0.519c-0.21 0.273-0.49 0.5-0.84 0.683-0.352 0.185-0.728 0.321-1.126 0.409-0.398 0.09-0.781 0.135-1.149 0.135zM247.277 148.421v0h4.341c0-0.65-0.178-1.18-0.534-1.588-0.357-0.409-0.849-0.613-1.479-0.614v0c-0.682 0-1.216 0.194-1.604 0.582-0.388 0.388-0.629 0.928-0.724 1.62zM256.967 153.392v0c-0.65 0-1.201-0.168-1.652-0.503-0.451-0.336-0.792-0.811-1.023-1.425-0.231-0.612-0.346-1.328-0.346-2.146v0c0-0.776 0.136-1.476 0.409-2.101 0.273-0.623 0.669-1.121 1.19-1.495 0.518-0.371 1.134-0.557 1.846-0.557v0c0.493 0 0.912 0.084 1.259 0.252 0.346 0.168 0.655 0.398 0.928 0.692v0-4.42h1.4v11.593h-0.834c-0.21 0-0.336-0.1-0.378-0.299v0l-0.125-0.959c-0.346 0.409-0.736 0.739-1.171 0.991-0.436 0.252-0.937 0.378-1.503 0.377zM257.423 152.26v0c0.461 0 0.863-0.105 1.205-0.315 0.34-0.21 0.656-0.509 0.95-0.897v0-3.853c-0.262-0.346-0.545-0.587-0.85-0.724-0.304-0.136-0.645-0.204-1.022-0.205v0c-0.493 0-0.912 0.117-1.259 0.353-0.346 0.237-0.608 0.583-0.786 1.038-0.178 0.457-0.267 1.011-0.267 1.661v0c0 0.954 0.163 1.683 0.487 2.186 0.325 0.503 0.839 0.755 1.542 0.756zM258.445 141.689h1.605l-0.173 1.227-1.18-0.252c-0.084-0.021-0.147-0.058-0.189-0.11-0.042-0.052-0.063-0.126-0.063-0.22v0zM262.11 153.282h-1.604l0.173-1.227 1.179 0.252c0.084 0.01 0.147 0.044 0.189 0.1 0.042 0.059 0.063 0.135 0.063 0.23v0zM264.076 153.408v0c-0.262 0-0.49-0.098-0.682-0.293-0.195-0.193-0.293-0.426-0.293-0.698v0c0-0.273 0.098-0.506 0.293-0.702 0.193-0.193 0.421-0.289 0.682-0.289v0c0.273 0 0.506 0.096 0.702 0.289 0.193 0.195 0.289 0.429 0.289 0.702v0c0 0.273-0.096 0.505-0.289 0.698-0.195 0.195-0.429 0.293-0.702 0.293z" fill="#528265" fill-rule="nonzero" stroke="none" stroke-width="1" stroke-linecap="butt" stroke-linejoin="miter" stroke-miterlimit="10" stroke-dasharray="" stroke-dashoffset="0" font-family="none" font-weight="none" font-size="none" text-anchor="none" style="mix-blend-mode: normal" data-fill-palette-color="secondary" id="text-1"></path></g></g><g transform="matrix(1,0,0,1,29.950375000000008,18.763363920341014)"><svg viewBox="0 0 316.416 21.706972159317967" height="21.706972159317967" width="316.416"><g><svg viewBox="0 0 316.416 21.706972159317967" height="21.706972159317967" width="316.416"><g><svg viewBox="0 0 316.416 21.706972159317967" height="21.706972159317967" width="316.416"><g id="textblocktransform"><svg viewBox="0 0 316.416 21.706972159317967" height="21.706972159317967" width="316.416" id="textblock"><g><svg viewBox="0 0 316.416 21.706972159317967" height="21.706972159317967" width="316.416"><g transform="matrix(1,0,0,1,0,0)"><svg width="316.416" viewBox="3.25 -38.25 750.63 51.5" height="21.706972159317967" data-palette-color="#528265"><path d="M16.55 0.75L16.55 0.75Q10.6 0.75 6.93-3.08 3.25-6.9 3.25-12.5 3.25-18.1 6.93-21.93 10.6-25.75 16.5-25.75L16.5-25.75Q19.8-25.75 22.95-23.85 26.1-21.95 26.1-18.7L26.1-18.7Q26.1-17.05 24.93-15.88 23.75-14.7 22.1-14.7 20.45-14.7 19.28-15.88 18.1-17.05 18.1-18.55 18.1-20.05 18.9-21.1 19.7-22.15 21-22.55L21-22.55Q19.6-23.15 17.8-23.15L17.8-23.15Q14.45-23.15 12.73-20.18 11-17.2 11-12.63 11-8.05 12.73-5.2 14.45-2.35 17.8-2.35L17.8-2.35Q22.3-2.35 25.45-6.1L25.45-6.1 26.85-5.2Q25.2-2.5 22.53-0.88 19.85 0.75 16.55 0.75ZM35.02-3.08Q31.35-6.9 31.35-12.5 31.35-18.1 35.02-21.93 38.7-25.75 44.6-25.75 50.5-25.75 54.17-21.93 57.85-18.1 57.85-12.5 57.85-6.9 54.17-3.08 50.5 0.75 44.6 0.75 38.7 0.75 35.02-3.08ZM40.5-20.53Q39.1-17.4 39.1-12.5 39.1-7.6 40.5-4.48 41.9-1.35 44.65-1.35 47.4-1.35 48.8-4.48 50.2-7.6 50.2-12.5 50.2-17.4 48.8-20.53 47.4-23.65 44.65-23.65 41.9-23.65 40.5-20.53ZM67.3-25L67.3-25Q71.89-25 75.25-22.45L75.25-22.45Q77.89-25.75 82.14-25.75L82.14-25.75Q87.89-25.75 90.89-22.03 93.9-18.3 93.9-12.53 93.9-6.75 90.67-3 87.44 0.75 81.64 0.75L81.64 0.75Q77.34 0.75 74.8-3.1L74.8-3.1 74.8 12.5 67.3 12.5 67.3-23Q65.05-23 63.3-22.25L63.3-22.25 62.59-24.1Q64.75-25 67.3-25ZM84.75-4.9Q86.14-7.7 86.14-12.5 86.14-17.3 84.75-20.1 83.34-22.9 80.47-22.9 77.59-22.9 76.07-20.08 74.55-17.25 74.55-12.5 74.55-7.75 76.07-4.93 77.59-2.1 80.47-2.1 83.34-2.1 84.75-4.9ZM97.79-22.45Q99.24-23.95 101.47-24.85 103.69-25.75 105.87-25.75 108.04-25.75 109.44-24.88 110.84-24 110.84-22.7L110.84-22.7 110.84-7.55Q110.84-5.95 111.84-5.13 112.84-4.3 114.34-4.3L114.34-4.3Q117.54-4.3 119.82-7.05 122.09-9.8 122.09-14.1L122.09-14.1Q122.09-16.5 121.14-19.15L121.14-19.15Q120.24-18.55 118.84-18.55 117.44-18.55 116.32-19.68 115.19-20.8 115.19-22.4 115.19-24 116.32-25.13 117.44-26.25 119.14-26.25 120.84-26.25 122.07-24.98 123.29-23.7 123.84-21.6L123.84-21.6Q124.74-17.95 124.74-13.53 124.74-9.1 123.72-4.65 122.69-0.2 121.02 3 119.34 6.2 117.24 8.55L117.24 8.55Q112.94 13.25 108.49 13.25L108.49 13.25Q107.29 13.25 106.52 12.73 105.74 12.2 104.74 10.8L104.74 10.8 102.14 7.2 103.44 5.85Q105.84 6.25 107.64 6.25L107.64 6.25Q113.24 6.25 116.79 2.7 120.34-0.85 122.39-8.85L122.39-8.85Q119.29-0.25 110.99-0.25L110.99-0.25Q107.79-0.25 105.57-2.43 103.34-4.6 103.34-8.6L103.34-8.6 103.34-23.35Q100.59-22.65 99.14-20.9L99.14-20.9 97.79-22.45ZM148.14-25.75L148.14-25.75Q149.64-25.75 149.64-22.9L149.64-22.9 149.64-5.55Q149.64-4.2 150.29-3.43 150.94-2.65 152.29-2.65 153.64-2.65 155.39-4.1L155.39-4.1 156.29-2.9Q152.29 0.75 148.29 0.75L148.29 0.75Q142.14 0.75 142.14-6.6L142.14-6.6 142.14-20.65Q139.79-19.7 136.44-19.35L136.44-19.35Q136.04-14.75 133.79-10.15L133.79-10.15 131.74-10.75Q133.14-14.3 133.24-19.2L133.24-19.2Q131.34-19.2 130.17-20.3 128.99-21.4 128.99-23.03 128.99-24.65 130.12-25.78 131.24-26.9 132.87-26.9 134.49-26.9 135.59-25.75 136.69-24.6 136.69-22.8L136.69-22.8 137.64-22.8Q141.59-22.8 146.04-25L146.04-25Q147.49-25.75 148.14-25.75ZM163.01-30.68Q161.84-31.85 161.84-33.5 161.84-35.15 163.01-36.33 164.19-37.5 165.84-37.5 167.49-37.5 168.66-36.33 169.84-35.15 169.84-33.5 169.84-31.85 168.66-30.68 167.49-29.5 165.84-29.5 164.19-29.5 163.01-30.68ZM164.89-25.75L164.89-25.75Q169.59-25.75 169.59-21.7L169.59-21.7 169.59-5.55Q169.59-4.2 170.24-3.43 170.89-2.65 172.24-2.65 173.59-2.65 175.34-4.1L175.34-4.1 176.24-2.9Q172.24 0.75 168.24 0.75L168.24 0.75Q162.09 0.75 162.09-6.6L162.09-6.6 162.09-23.35Q159.34-22.65 157.89-20.9L157.89-20.9 156.54-22.45Q157.99-23.95 160.21-24.85 162.44-25.75 164.89-25.75ZM196.19 6.6L196.19 6.6 186.94 6.6Q179.59 6.6 179.59 0.45L179.59 0.45Q179.59-2.9 183.29-7.1L183.29-7.1Q179.24-10.05 179.24-15.25L179.24-15.25Q179.24-19.7 182.49-22.73 185.74-25.75 190.99-25.75L190.99-25.75Q194.79-25.75 197.74-24L197.74-24Q199.89-25.95 200.69-29.1L200.69-29.1 202.64-28.6Q201.74-25.1 199.34-22.8L199.34-22.8Q202.74-19.7 202.74-15.25 202.74-10.8 199.49-7.78 196.24-4.75 190.99-4.75L190.99-4.75Q187.39-4.75 184.74-6.2L184.74-6.2Q182.99-3.75 182.99-2.5L182.99-2.5Q182.99 0 185.89 0L185.89 0 195.14 0Q202.49 0 202.49 5.4L202.49 5.4Q202.49 9.25 198.84 13.25L198.84 13.25 197.64 12.1Q199.09 10.35 199.09 9.13 199.09 7.9 198.31 7.25 197.54 6.6 196.19 6.6ZM188.01-21.3Q186.99-18.95 186.99-15.25 186.99-11.55 188.01-9.2 189.04-6.85 191.04-6.85 193.04-6.85 194.06-9.2 195.09-11.55 195.09-15.25 195.09-18.95 194.06-21.3 193.04-23.65 191.04-23.65 189.04-23.65 188.01-21.3ZM219.28-35.2L219.28-35.2 219.28-22.35Q221.03-24.25 223.06-25 225.08-25.75 228.21-25.75 231.33-25.75 233.31-23.78 235.28-21.8 235.28-18.4L235.28-18.4 235.28-5.55Q235.28-4.2 235.93-3.43 236.58-2.65 237.93-2.65 239.28-2.65 241.03-4.1L241.03-4.1 241.93-2.9Q237.93 0.75 233.93 0.75L233.93 0.75Q227.78 0.75 227.78-6.6L227.78-6.6 227.78-19.45Q227.78-21 226.83-21.85 225.88-22.7 224.18-22.7 222.48-22.7 220.88-21.3 219.28-19.9 219.28-17.65L219.28-17.65 219.28 0 211.78 0 211.78-35.85Q209.03-35.15 207.58-33.4L207.58-33.4 206.23-34.95Q207.68-36.45 209.91-37.35 212.13-38.25 214.31-38.25 216.48-38.25 217.88-37.38 219.28-36.5 219.28-35.2ZM246.98-22.25L242.88-22.25 242.88-24.3 246.98-24.3 246.98-31.5 254.48-31.5 254.48-24.3 260.13-24.3 260.13-22.25 254.48-22.25 254.48-5.55Q254.48-4.2 255.13-3.43 255.78-2.65 257.13-2.65 258.48-2.65 260.23-4.1L260.23-4.1 261.13-2.9Q257.13 0.75 253.13 0.75L253.13 0.75Q246.98 0.75 246.98-6.6L246.98-6.6 246.98-22.25ZM300.43 0L300.43 0 279.23 0 279.23-2 290.98-13.9Q296.13-19.1 296.13-24.9L296.13-24.9Q296.13-28.45 294.1-30.8 292.07-33.15 288.98-33.15L288.98-33.15Q286.73-33.15 285.02-32.45L285.02-32.45Q286.18-32.05 286.93-31.03 287.68-30 287.68-28.55 287.68-27.1 286.48-25.9 285.27-24.7 283.63-24.7 281.98-24.7 280.82-25.88 279.68-27.05 279.68-28.7L279.68-28.7Q279.68-31.9 283.05-33.83 286.43-35.75 291.48-35.75 296.52-35.75 299.77-33.08 303.02-30.4 303.02-26.5L303.02-26.5Q303.02-23.5 301.13-20.9 299.23-18.3 294.07-13.4L294.07-13.4 284.93-4.6 293.23-4.6Q296.43-4.6 297.88-5.5 299.32-6.4 299.82-8.7L299.82-8.7 300.18-10.5 302.13-10.5 303.48-2.1Q303.48-1.1 303.02-0.63 302.57-0.15 302.05-0.08 301.52 0 300.43 0ZM308.92-17.48Q308.92-25.2 312.57-30.48 316.22-35.75 322.12-35.75 328.02-35.75 331.67-30.48 335.32-25.2 335.32-17.45 335.32-9.7 331.67-4.48 328.02 0.75 322.12 0.75 316.22 0.75 312.57-4.5 308.92-9.75 308.92-17.48ZM326.55-29.13Q325.02-33.7 322.12-33.7 319.22-33.7 317.7-29.13 316.17-24.55 316.17-17.48 316.17-10.4 317.7-5.85 319.22-1.3 322.12-1.3 325.02-1.3 326.55-5.85 328.07-10.4 328.07-17.48 328.07-24.55 326.55-29.13ZM360.42 0L360.42 0 339.22 0 339.22-2 350.97-13.9Q356.12-19.1 356.12-24.9L356.12-24.9Q356.12-28.45 354.1-30.8 352.07-33.15 348.97-33.15L348.97-33.15Q346.72-33.15 345.02-32.45L345.02-32.45Q346.17-32.05 346.92-31.03 347.67-30 347.67-28.55 347.67-27.1 346.47-25.9 345.27-24.7 343.62-24.7 341.97-24.7 340.82-25.88 339.67-27.05 339.67-28.7L339.67-28.7Q339.67-31.9 343.05-33.83 346.42-35.75 351.47-35.75 356.52-35.75 359.77-33.08 363.02-30.4 363.02-26.5L363.02-26.5Q363.02-23.5 361.12-20.9 359.22-18.3 354.07-13.4L354.07-13.4 344.92-4.6 353.22-4.6Q356.42-4.6 357.87-5.5 359.32-6.4 359.82-8.7L359.82-8.7 360.17-10.5 362.12-10.5 363.47-2.1Q363.47-1.1 363.02-0.63 362.57-0.15 362.05-0.08 361.52 0 360.42 0ZM376.07-35L384.57-35Q384.57-27.95 380.49-21.28 376.42-14.6 371.12-10.45L371.12-10.45 383.32-10.45 383.32-20.5Q387.57-22.3 388.62-25.75L388.62-25.75 390.82-25.75 390.82-10.45 393.82-10.45 393.82-7.95 390.82-7.95 390.82-2 396.82-2 396.82 0 376.82 0 376.82-2 383.32-2 383.32-7.95 367.97-7.95 367.97-10.45Q372.82-15 374.52-22.5L374.52-22.5Q375.87-28.55 376.07-35L376.07-35ZM425.16-35.2L425.16-35.2 425.16-22.25Q427.86-25.75 433.46-25.75L433.46-25.75Q436.66-25.75 438.66-24.15 440.66-22.55 440.66-20.13 440.66-17.7 439.21-15.8 437.76-13.9 435.26-12.7L435.26-12.7 438.26-4.9Q438.76-3.6 439.26-3.13 439.76-2.65 440.66-2.65L440.66-2.65Q442.31-2.65 444.06-4.1L444.06-4.1 444.96-2.9Q440.96 0.75 436.69 0.75 432.41 0.75 431.01-2.85L431.01-2.85 427.26-12.45Q430.01-13.1 431.84-15.15 433.66-17.2 433.66-19.1 433.66-21 432.71-21.85 431.76-22.7 430.31-22.7L430.31-22.7Q427.91-22.7 426.54-20.78 425.16-18.85 425.16-15.5L425.16-15.5 425.16 0 417.66 0 417.66-35.85Q414.91-35.15 413.46-33.4L413.46-33.4 412.11-34.95Q413.56-36.45 415.79-37.35 418.01-38.25 420.19-38.25 422.36-38.25 423.76-37.38 425.16-36.5 425.16-35.2ZM466.81-25L474.31-25 474.31-5.55Q474.31-4.2 474.96-3.43 475.61-2.65 476.96-2.65 478.31-2.65 480.06-4.1L480.06-4.1 480.96-2.9Q476.96 0.75 472.96 0.75L472.96 0.75Q468.21 0.75 467.11-3.7L467.11-3.7Q464.51 0.75 459.46 0.75L459.46 0.75Q453.71 0.75 450.71-2.98 447.71-6.7 447.71-12.48 447.71-18.25 450.94-22 454.16-25.75 459.96-25.75L459.96-25.75Q464.41-25.75 466.81-22.2L466.81-22.2 466.81-25ZM456.86-20.1Q455.46-17.3 455.46-12.5 455.46-7.7 456.86-4.9 458.26-2.1 461.14-2.1 464.01-2.1 465.54-4.93 467.06-7.75 467.06-12.5 467.06-17.25 465.54-20.08 464.01-22.9 461.14-22.9 458.26-22.9 456.86-20.1ZM504.41 0L504.41 0 483.71 0 483.71-2 499.11-23 494.96-23Q491.66-23 490.43-22.35 489.21-21.7 488.76-19.45L488.76-19.45 487.76-14.5 485.81-14.5 484.46-22.9Q484.46-23.9 484.91-24.38 485.36-24.85 485.88-24.93 486.41-25 487.51-25L487.51-25 507.21-25 507.21-23 492.16-2 496.96-2Q500.26-2 501.48-2.65 502.71-3.3 503.16-5.55L503.16-5.55 504.16-10.5 506.11-10.5 507.46-2.1Q507.46-1.1 507.01-0.63 506.56-0.15 506.03-0.08 505.51 0 504.41 0ZM524.66-11.55Q527.91-11.85 529.68-14.03 531.46-16.2 531.46-18.43 531.46-20.65 530.48-21.85 529.5-23.05 527.53-23.05 525.56-23.05 523.75-20.25 521.96-17.45 521.96-12.75 521.96-8.05 523.66-5.2 525.36-2.35 528.5-2.35L528.5-2.35Q533.31-2.35 536.66-6.1L536.66-6.1 538.06-5.2Q536.36-2.5 533.56-0.88 530.75 0.75 527.25 0.75L527.25 0.75Q521.31 0.75 517.75-3.18 514.21-7.1 514.21-12.65 514.21-18.2 517.98-21.98 521.75-25.75 528.46-25.75L528.46-25.75Q532.86-25.75 535.36-23.7 537.86-21.65 537.86-18.5 537.86-15.35 535.08-12.68 532.31-10 527.75-10L527.75-10Q526.21-10 524.75-10.35L524.75-10.35 524.66-11.55ZM540.8-34.95Q542.25-36.45 544.48-37.35 546.7-38.25 548.88-38.25 551.05-38.25 552.45-37.38 553.85-36.5 553.85-35.2L553.85-35.2 553.85-5.55Q553.85-4.2 554.5-3.43 555.15-2.65 556.5-2.65 557.85-2.65 559.6-4.1L559.6-4.1 560.5-2.9Q556.5 0.75 552.5 0.75L552.5 0.75Q546.35 0.75 546.35-6.6L546.35-6.6 546.35-35.85Q543.6-35.15 542.15-33.4L542.15-33.4 540.8-34.95ZM567.23-30.68Q566.05-31.85 566.05-33.5 566.05-35.15 567.23-36.33 568.4-37.5 570.05-37.5 571.7-37.5 572.88-36.33 574.05-35.15 574.05-33.5 574.05-31.85 572.88-30.68 571.7-29.5 570.05-29.5 568.4-29.5 567.23-30.68ZM569.1-25.75L569.1-25.75Q573.8-25.75 573.8-21.7L573.8-21.7 573.8-5.55Q573.8-4.2 574.45-3.43 575.1-2.65 576.45-2.65 577.8-2.65 579.55-4.1L579.55-4.1 580.45-2.9Q576.45 0.75 572.45 0.75L572.45 0.75Q566.3 0.75 566.3-6.6L566.3-6.6 566.3-23.35Q563.55-22.65 562.1-20.9L562.1-20.9 560.75-22.45Q562.2-23.95 564.42-24.85 566.65-25.75 569.1-25.75ZM585.5-22.25L581.4-22.25 581.4-24.3 585.5-24.3 585.5-29.35Q585.5-33.3 587.75-35.77 590-38.25 595-38.25L595-38.25Q597.45-38.25 599.67-37.35 601.9-36.45 603.35-34.95L603.35-34.95 602-33.4Q599.85-35.25 597.2-35.25L597.2-35.25Q593-35.25 593-29.75L593-29.75 593-24.3 598.65-24.3 598.65-22.25 593-22.25 593 6.6 585.5 6.6 585.5-22.25ZM611.6-11.55Q614.85-11.85 616.62-14.03 618.39-16.2 618.39-18.43 618.39-20.65 617.42-21.85 616.44-23.05 614.47-23.05 612.5-23.05 610.69-20.25 608.89-17.45 608.89-12.75 608.89-8.05 610.6-5.2 612.29-2.35 615.44-2.35L615.44-2.35Q620.25-2.35 623.6-6.1L623.6-6.1 625-5.2Q623.29-2.5 620.5-0.88 617.69 0.75 614.19 0.75L614.19 0.75Q608.25 0.75 604.69-3.18 601.14-7.1 601.14-12.65 601.14-18.2 604.92-21.98 608.69-25.75 615.39-25.75L615.39-25.75Q619.79-25.75 622.29-23.7 624.79-21.65 624.79-18.5 624.79-15.35 622.02-12.68 619.25-10 614.69-10L614.69-10Q613.14-10 611.69-10.35L611.69-10.35 611.6-11.55ZM631.87-0.38Q630.74-1.5 630.74-3.1 630.74-4.7 631.87-5.83 632.99-6.95 634.59-6.95 636.19-6.95 637.32-5.83 638.44-4.7 638.44-3.1 638.44-1.5 637.32-0.38 636.19 0.75 634.59 0.75 632.99 0.75 631.87-0.38ZM657.99 0.75L657.99 0.75Q652.04 0.75 648.36-3.08 644.69-6.9 644.69-12.5 644.69-18.1 648.36-21.93 652.04-25.75 657.94-25.75L657.94-25.75Q661.24-25.75 664.39-23.85 667.54-21.95 667.54-18.7L667.54-18.7Q667.54-17.05 666.36-15.88 665.19-14.7 663.54-14.7 661.89-14.7 660.71-15.88 659.54-17.05 659.54-18.55 659.54-20.05 660.34-21.1 661.14-22.15 662.44-22.55L662.44-22.55Q661.04-23.15 659.24-23.15L659.24-23.15Q655.89-23.15 654.16-20.18 652.44-17.2 652.44-12.63 652.44-8.05 654.16-5.2 655.89-2.35 659.24-2.35L659.24-2.35Q663.74-2.35 666.89-6.1L666.89-6.1 668.29-5.2Q666.64-2.5 663.96-0.88 661.29 0.75 657.99 0.75ZM676.46-3.08Q672.79-6.9 672.79-12.5 672.79-18.1 676.46-21.93 680.14-25.75 686.04-25.75 691.94-25.75 695.61-21.93 699.29-18.1 699.29-12.5 699.29-6.9 695.61-3.08 691.94 0.75 686.04 0.75 680.14 0.75 676.46-3.08ZM681.94-20.53Q680.54-17.4 680.54-12.5 680.54-7.6 681.94-4.48 683.34-1.35 686.09-1.35 688.84-1.35 690.24-4.48 691.64-7.6 691.64-12.5 691.64-17.4 690.24-20.53 688.84-23.65 686.09-23.65 683.34-23.65 681.94-20.53ZM704.73-22.25L704.03-24.1Q706.18-25 708.66-25 711.13-25 712.76-24.4 714.38-23.8 716.13-22.5L716.13-22.5Q717.93-24.3 719.81-25.03 721.68-25.75 724.23-25.75L724.23-25.75Q729.33-25.75 731.03-21.85L731.03-21.85Q732.98-24 734.96-24.88 736.93-25.75 740.11-25.75 743.28-25.75 745.26-23.78 747.23-21.8 747.23-18.4L747.23-18.4 747.23-5.55Q747.23-4.2 747.88-3.43 748.53-2.65 749.88-2.65 751.23-2.65 752.98-4.1L752.98-4.1 753.88-2.9Q749.88 0.75 745.88 0.75L745.88 0.75Q739.73 0.75 739.73-6.6L739.73-6.6 739.73-19.45Q739.73-21 738.83-21.85 737.93-22.7 736.36-22.7 734.78-22.7 733.26-21.35 731.73-20 731.73-17.85L731.73-17.85 731.73 0 724.23 0 724.23-19.45Q724.23-21 723.33-21.85 722.43-22.7 720.86-22.7 719.28-22.7 717.76-21.35 716.23-20 716.23-17.85L716.23-17.85 716.23 0 708.73 0 708.73-23Q706.48-23 704.73-22.25L704.73-22.25Z" opacity="1" transform="matrix(1,0,0,1,0,0)" fill="#528265" class="wordmark-text-0" data-fill-palette-color="primary" id="text-0"></path></svg></g></svg></g></svg></g></svg></g><g></g></svg></g></svg></g></svg></g><defs></defs></svg><rect width="376.31675" height="59.2337" fill="none" stroke="none" visibility="hidden"></rect></g></svg></g></svg>