<svg xmlns="http://www.w3.org/2000/svg" version="1.1" xmlns:xlink="http://www.w3.org/1999/xlink" xmlns:svgjs="http://svgjs.dev/svgjs" width="2000" height="986" viewBox="0 0 2000 986"><g transform="matrix(1,0,0,1,0.21333333333336668,0.4095364324323896)"><svg viewBox="0 0 375 185" data-background-color="#c9efc7" preserveAspectRatio="xMidYMid meet" height="986" width="2000" xmlns="http://www.w3.org/2000/svg" xmlns:xlink="http://www.w3.org/1999/xlink"><g id="tight-bounds" transform="matrix(1,0,0,1,-0.03976000000000113,-0.07683999999999003)"><svg viewBox="0 0 375.07953 185.15367999999998" height="185.15367999999998" width="375.07953"><g><svg></svg></g><g><svg viewBox="0 0 375.07953 185.15367999999998" height="185.15367999999998" width="375.07953"><g transform="matrix(1,0,0,1,-10.22024,-38.431700000000006)"><path d="M10.22 208.768v-170.336h375.08v170.336l-11.298 0 0-6.011h5.287v-158.314h-363.058v158.314l12.665 0 0 6.011z" fill="#528265" fill-rule="nonzero" stroke="none" stroke-width="1" stroke-linecap="butt" stroke-linejoin="miter" stroke-miterlimit="10" stroke-dasharray="" stroke-dashoffset="0" font-family="none" font-weight="none" font-size="none" text-anchor="none" style="mix-blend-mode: normal" data-fill-palette-color="tertiary"></path><g><path d="M53.674 216.381h-3.728v-21.236h2.22c0.558 0 0.894 0.265 1.005 0.795v0l0.293 2.178c0.782-0.977 1.656-1.773 2.622-2.387 0.961-0.614 2.083-0.921 3.368-0.922v0c1.452 0 2.619 0.397 3.502 1.19 0.877 0.799 1.511 1.882 1.901 3.25v0c0.586-1.508 1.502-2.625 2.748-3.351 1.24-0.726 2.586-1.089 4.038-1.089v0c2.262 0 4.007 0.718 5.236 2.153 1.229 1.441 1.843 3.404 1.843 5.89v0 13.529h-3.728v-13.529c0-1.648-0.363-2.904-1.089-3.77-0.726-0.866-1.787-1.298-3.184-1.299v0c-1.285 0-2.365 0.452-3.242 1.357-0.882 0.91-1.324 2.147-1.323 3.712v0 13.529h-3.728v-13.529c0-1.703-0.341-2.974-1.022-3.812-0.687-0.838-1.687-1.257-2.999-1.257v0c-0.921 0-1.773 0.251-2.555 0.754-0.782 0.503-1.508 1.173-2.178 2.011v0zM51.202 216.381h-4.272v-1.717c0-0.251 0.056-0.455 0.168-0.612 0.112-0.151 0.279-0.24 0.502-0.268v0l3.142-0.67zM56.69 216.381h-4.273l0.461-3.267 3.141 0.67c0.223 0.028 0.391 0.117 0.503 0.268 0.112 0.156 0.168 0.36 0.168 0.612v0zM69.172 216.381h-4.273l0.461-3.267 3.142 0.67c0.223 0.028 0.391 0.117 0.502 0.268 0.112 0.156 0.168 0.36 0.168 0.612v0zM46.93 195.144h4.272l-0.46 3.268-3.142-0.671c-0.223-0.056-0.391-0.154-0.502-0.293-0.112-0.14-0.168-0.335-0.168-0.586v0zM81.738 216.381h-4.273l0.461-3.267 3.141 0.67c0.223 0.028 0.391 0.117 0.503 0.268 0.112 0.156 0.168 0.36 0.168 0.612v0zM90.199 216.381h-3.728v-21.236h3.728zM87.727 216.381h-4.272v-1.717c0-0.251 0.056-0.455 0.168-0.612 0.112-0.151 0.279-0.24 0.502-0.268v0l3.142-0.67zM93.214 216.381h-4.272l0.461-3.267 3.141 0.67c0.223 0.028 0.391 0.117 0.503 0.268 0.112 0.156 0.168 0.36 0.167 0.612v0zM83.455 195.144h4.272l-0.46 3.268-3.142-0.671c-0.223-0.056-0.391-0.154-0.502-0.293-0.112-0.14-0.168-0.335-0.168-0.586v0zM88.272 191.123v0c-0.698 0-1.312-0.265-1.843-0.795-0.531-0.531-0.796-1.145-0.796-1.843v0c0-0.726 0.265-1.354 0.796-1.885 0.531-0.531 1.145-0.796 1.843-0.796v0c0.726 0 1.354 0.265 1.885 0.796 0.531 0.531 0.796 1.159 0.796 1.885v0c0 0.698-0.265 1.312-0.796 1.843-0.531 0.531-1.159 0.796-1.885 0.795zM101.676 216.381h-3.728v-21.236h2.22c0.558 0 0.894 0.265 1.005 0.795v0l0.293 2.304c0.921-1.033 1.955-1.865 3.1-2.496 1.145-0.625 2.457-0.938 3.937-0.939v0c1.564 0 2.871 0.335 3.921 1.006 1.044 0.67 1.84 1.611 2.387 2.823 0.542 1.218 0.813 2.622 0.813 4.214v0 13.529h-3.728v-13.529c0-1.592-0.369-2.834-1.106-3.728-0.743-0.894-1.868-1.34-3.376-1.341v0c-1.089 0-2.114 0.265-3.074 0.796-0.966 0.531-1.854 1.257-2.664 2.178v0zM99.204 216.381h-4.272v-1.717c0-0.251 0.056-0.455 0.167-0.612 0.112-0.151 0.279-0.24 0.503-0.268v0l3.142-0.67zM104.691 216.381h-4.272l0.461-3.267 3.141 0.67c0.223 0.028 0.391 0.117 0.503 0.268 0.112 0.156 0.168 0.36 0.167 0.612v0zM118.64 216.381h-4.273l0.461-3.267 3.141 0.67c0.223 0.028 0.391 0.117 0.503 0.268 0.112 0.156 0.168 0.36 0.168 0.612v0zM94.932 195.144h4.272l-0.461 3.268-3.141-0.671c-0.223-0.056-0.391-0.154-0.503-0.293-0.112-0.14-0.168-0.335-0.167-0.586v0zM127.101 216.381h-3.728v-21.236h3.728zM124.629 216.381h-4.272v-1.717c0-0.251 0.056-0.455 0.167-0.612 0.112-0.151 0.279-0.24 0.503-0.268v0l3.142-0.67zM130.116 216.381h-4.272l0.461-3.267 3.141 0.67c0.223 0.028 0.391 0.117 0.503 0.268 0.112 0.156 0.168 0.36 0.167 0.612v0zM120.357 195.144h4.272l-0.46 3.268-3.142-0.671c-0.223-0.056-0.391-0.154-0.503-0.293-0.112-0.14-0.168-0.335-0.167-0.586v0zM125.174 191.123v0c-0.698 0-1.312-0.265-1.843-0.795-0.531-0.531-0.796-1.145-0.796-1.843v0c0-0.726 0.265-1.354 0.796-1.885 0.531-0.531 1.145-0.796 1.843-0.796v0c0.726 0 1.354 0.265 1.885 0.796 0.531 0.531 0.796 1.159 0.796 1.885v0c0 0.698-0.265 1.312-0.796 1.843-0.531 0.531-1.159 0.796-1.885 0.795zM138.577 216.381h-3.727v-21.236h2.22c0.558 0 0.894 0.265 1.005 0.795v0l0.293 2.178c0.782-0.977 1.656-1.773 2.622-2.387 0.961-0.614 2.083-0.921 3.368-0.922v0c1.452 0 2.619 0.397 3.502 1.19 0.877 0.799 1.511 1.882 1.901 3.25v0c0.586-1.508 1.502-2.625 2.748-3.351 1.24-0.726 2.586-1.089 4.038-1.089v0c2.262 0 4.007 0.718 5.236 2.153 1.229 1.441 1.843 3.404 1.843 5.89v0 13.529h-3.728v-13.529c0-1.648-0.363-2.904-1.089-3.77-0.726-0.866-1.787-1.298-3.184-1.299v0c-1.285 0-2.365 0.452-3.242 1.357-0.882 0.91-1.324 2.147-1.323 3.712v0 13.529h-3.728v-13.529c0-1.703-0.341-2.974-1.022-3.812-0.687-0.838-1.687-1.257-2.999-1.257v0c-0.921 0-1.773 0.251-2.555 0.754-0.782 0.503-1.508 1.173-2.179 2.011v0zM136.106 216.381h-4.272v-1.717c0-0.251 0.056-0.455 0.167-0.612 0.112-0.151 0.279-0.24 0.503-0.268v0l3.141-0.67zM141.593 216.381h-4.272l0.461-3.267 3.141 0.67c0.223 0.028 0.391 0.117 0.503 0.268 0.112 0.156 0.168 0.36 0.167 0.612v0zM154.075 216.381h-4.272l0.461-3.267 3.141 0.67c0.223 0.028 0.391 0.117 0.503 0.268 0.112 0.156 0.168 0.36 0.167 0.612v0zM131.834 195.144h4.272l-0.461 3.268-3.141-0.671c-0.223-0.056-0.391-0.154-0.503-0.293-0.112-0.14-0.168-0.335-0.167-0.586v0zM166.641 216.381h-4.272l0.461-3.267 3.141 0.67c0.223 0.028 0.391 0.117 0.503 0.268 0.112 0.156 0.168 0.36 0.167 0.612v0zM174.642 216.716v0c-1.117 0-2.122-0.218-3.016-0.653-0.894-0.43-1.606-1.064-2.136-1.902-0.531-0.838-0.796-1.871-0.796-3.1v0c0-0.838 0.232-1.639 0.695-2.404 0.458-0.771 1.204-1.463 2.237-2.078v0c1.033-0.586 2.382-1.075 4.046-1.466 1.659-0.391 3.689-0.614 6.09-0.67v0-1.633c0-1.648-0.355-2.899-1.064-3.753-0.715-0.849-1.756-1.273-3.124-1.274v0c-0.726 0-1.486 0.187-2.279 0.562-0.799 0.38-1.533 0.757-2.203 1.131-0.67 0.38-1.201 0.57-1.592 0.569v0c-0.251 0-0.466-0.07-0.645-0.209-0.184-0.14-0.332-0.307-0.444-0.503v0l-0.67-1.173c1.173-1.145 2.438-1.997 3.795-2.555 1.352-0.558 2.851-0.838 4.498-0.837v0c1.592 0 2.932 0.335 4.022 1.005 1.089 0.67 1.921 1.606 2.496 2.806 0.57 1.201 0.854 2.611 0.854 4.231v0 13.571h-1.633c-0.363 0-0.656-0.056-0.88-0.168-0.223-0.112-0.377-0.349-0.46-0.712v0l-0.419-1.968c-1.117 1.005-2.234 1.787-3.351 2.345-1.117 0.558-2.457 0.838-4.021 0.838zM175.731 214.077v0c1.257 0 2.36-0.251 3.309-0.754 0.949-0.503 1.857-1.201 2.722-2.094v0-4.398c-1.452 0.028-2.764 0.131-3.937 0.31-1.173 0.184-2.17 0.436-2.991 0.754-0.827 0.324-1.455 0.729-1.885 1.214-0.436 0.491-0.653 1.086-0.653 1.785v0c0 1.117 0.33 1.927 0.989 2.429 0.653 0.503 1.469 0.754 2.446 0.754zM188.422 216.381h-4.272l0.461-3.267 3.141 0.67c0.223 0.028 0.391 0.117 0.503 0.268 0.112 0.156 0.168 0.36 0.167 0.612v0zM196.883 216.381h-3.728v-30.87h3.728zM194.412 216.381h-4.272v-1.717c0-0.251 0.056-0.455 0.167-0.612 0.112-0.151 0.279-0.24 0.503-0.268v0l3.141-0.67zM199.899 216.381h-4.272l0.461-3.267 3.141 0.67c0.223 0.028 0.391 0.117 0.503 0.268 0.112 0.156 0.168 0.36 0.167 0.612v0zM190.14 185.511h4.272l-0.461 3.267-3.141-0.67c-0.223-0.056-0.391-0.154-0.503-0.294-0.112-0.14-0.168-0.335-0.167-0.586v0zM220.675 216.716v0c-1.675 0-2.966-0.469-3.87-1.407-0.91-0.933-1.365-2.279-1.366-4.038v0-12.985h-2.555c-0.223 0-0.41-0.07-0.561-0.209-0.156-0.14-0.235-0.349-0.235-0.629v0-1.466l3.477-0.461 0.879-6.534c0.056-0.475 0.335-0.712 0.838-0.712v0h1.885v7.288h6.073v2.723h-6.073v12.733c0 0.894 0.218 1.555 0.653 1.986 0.43 0.436 0.994 0.653 1.693 0.653v0c0.307 0 0.642-0.084 1.005-0.251 0.363-0.168 0.698-0.335 1.005-0.503 0.307-0.168 0.531-0.251 0.67-0.251v0c0.195 0 0.363 0.112 0.503 0.335v0l1.089 1.801c-0.642 0.586-1.416 1.053-2.321 1.399-0.91 0.352-1.84 0.528-2.789 0.528zM234.665 216.381h-3.728v-21.236h3.728zM232.194 216.381h-4.273v-1.717c0-0.251 0.056-0.455 0.168-0.612 0.112-0.151 0.279-0.24 0.502-0.268v0l3.142-0.67zM237.681 216.381h-4.273l0.461-3.267 3.142 0.67c0.223 0.028 0.391 0.117 0.502 0.268 0.112 0.156 0.168 0.36 0.168 0.612v0zM227.921 195.144h4.273l-0.461 3.268-3.142-0.671c-0.223-0.056-0.391-0.154-0.502-0.293-0.112-0.14-0.168-0.335-0.168-0.586v0zM232.738 191.123v0c-0.698 0-1.312-0.265-1.843-0.795-0.531-0.531-0.796-1.145-0.796-1.843v0c0-0.726 0.265-1.354 0.796-1.885 0.531-0.531 1.145-0.796 1.843-0.796v0c0.726 0 1.354 0.265 1.885 0.796 0.531 0.531 0.796 1.159 0.796 1.885v0c0 0.698-0.265 1.312-0.796 1.843-0.531 0.531-1.159 0.796-1.885 0.795zM246.142 223.585h-3.728v-28.441h2.22c0.558 0 0.894 0.265 1.005 0.796v0l0.335 2.514c0.894-1.117 1.927-2.011 3.1-2.681 1.173-0.67 2.513-1.005 4.021-1.005v0c1.731 0 3.197 0.447 4.398 1.34 1.201 0.894 2.108 2.15 2.723 3.77 0.614 1.62 0.921 3.532 0.921 5.738v0c0 2.038-0.363 3.895-1.089 5.571-0.726 1.675-1.773 3.007-3.141 3.996-1.368 0.994-3.016 1.491-4.943 1.491v0c-1.312 0-2.429-0.218-3.351-0.653-0.921-0.43-1.745-1.05-2.471-1.86v0zM251.126 213.784v0c1.34 0 2.466-0.316 3.376-0.947 0.905-0.625 1.594-1.553 2.07-2.781 0.475-1.229 0.712-2.709 0.712-4.44v0c0-2.569-0.447-4.518-1.341-5.847-0.894-1.324-2.248-1.985-4.063-1.986v0c-1.229 0-2.298 0.279-3.208 0.838-0.905 0.558-1.748 1.354-2.53 2.388v0 10.262c0.698 0.921 1.452 1.569 2.262 1.943 0.81 0.38 1.717 0.57 2.722 0.57zM239.398 195.144h4.273l-0.461 3.268-3.142-0.671c-0.223-0.056-0.391-0.154-0.502-0.293-0.112-0.14-0.168-0.335-0.168-0.586v0zM243.671 223.585h-4.273v-1.717c0-0.251 0.056-0.452 0.168-0.603 0.112-0.156 0.279-0.249 0.502-0.277v0l3.142-0.67zM249.158 223.585h-4.273l0.461-3.267 3.141 0.67c0.223 0.028 0.391 0.12 0.503 0.277 0.112 0.151 0.168 0.352 0.168 0.603v0zM270.897 216.716v0c-1.005 0-2.128-0.112-3.368-0.335-1.245-0.223-2.315-0.503-3.208-0.838v0-3.099l1.843 0.418c0.363 0.251 0.944 0.508 1.742 0.771 0.793 0.268 1.72 0.402 2.781 0.402v0c1.592 0 2.764-0.33 3.519-0.988 0.754-0.653 1.131-1.455 1.131-2.405v0c0-0.838-0.251-1.48-0.754-1.926-0.503-0.447-1.173-0.81-2.011-1.089-0.838-0.279-1.745-0.572-2.722-0.88v0c-1.005-0.335-1.927-0.726-2.765-1.173-0.838-0.447-1.508-1.028-2.011-1.742-0.503-0.709-0.754-1.608-0.753-2.698v0c0-1.257 0.327-2.36 0.98-3.309 0.659-0.949 1.555-1.689 2.689-2.22 1.128-0.531 2.404-0.796 3.828-0.796v0c0.81 0 1.709 0.098 2.698 0.294 0.994 0.195 2.078 0.489 3.25 0.879v0 2.513l-2.22-0.293c-0.586-0.168-1.178-0.307-1.776-0.419-0.603-0.112-1.184-0.168-1.742-0.167v0c-0.81 0-1.527 0.126-2.153 0.377-0.631 0.251-1.128 0.6-1.492 1.047-0.363 0.447-0.545 0.963-0.544 1.55v0c0 0.782 0.302 1.402 0.905 1.859 0.598 0.464 1.329 0.835 2.195 1.115 0.866 0.279 1.689 0.545 2.471 0.795v0c0.921 0.279 1.796 0.642 2.622 1.09 0.821 0.447 1.497 1.033 2.027 1.759 0.531 0.726 0.796 1.675 0.796 2.848v0c0 1.257-0.33 2.388-0.988 3.393-0.653 1.005-1.572 1.801-2.757 2.387-1.19 0.586-2.594 0.88-4.213 0.88zM275.504 200.757l-0.419-3.141 2.681 0.544v3.267h-1.382c-0.279 0-0.489-0.061-0.628-0.184-0.14-0.128-0.223-0.29-0.252-0.486zM266.582 210.684l0.419 3.142-2.68-0.545v-3.267h1.382c0.307 0 0.522 0.061 0.645 0.184 0.128 0.128 0.207 0.29 0.234 0.486zM299.631 216.716v0c-1.005 0-2.128-0.112-3.368-0.335-1.245-0.223-2.315-0.503-3.208-0.838v0-3.099l1.843 0.418c0.363 0.251 0.944 0.508 1.742 0.771 0.793 0.268 1.72 0.402 2.781 0.402v0c1.592 0 2.764-0.33 3.519-0.988 0.754-0.653 1.131-1.455 1.131-2.405v0c0-0.838-0.251-1.48-0.754-1.926-0.503-0.447-1.173-0.81-2.011-1.089-0.838-0.279-1.745-0.572-2.722-0.88v0c-1.005-0.335-1.927-0.726-2.765-1.173-0.838-0.447-1.508-1.028-2.01-1.742-0.503-0.709-0.754-1.608-0.754-2.698v0c0-1.257 0.33-2.36 0.988-3.309 0.653-0.949 1.547-1.689 2.681-2.22 1.128-0.531 2.404-0.796 3.828-0.796v0c0.81 0 1.712 0.098 2.706 0.294 0.989 0.195 2.069 0.489 3.242 0.879v0 2.513l-2.22-0.293c-0.586-0.168-1.178-0.307-1.776-0.419-0.603-0.112-1.184-0.168-1.742-0.167v0c-0.81 0-1.527 0.126-2.153 0.377-0.631 0.251-1.128 0.6-1.491 1.047-0.363 0.447-0.545 0.963-0.545 1.55v0c0 0.782 0.302 1.402 0.905 1.859 0.598 0.464 1.329 0.835 2.195 1.115 0.866 0.279 1.689 0.545 2.471 0.795v0c0.921 0.279 1.796 0.642 2.622 1.09 0.821 0.447 1.497 1.033 2.027 1.759 0.531 0.726 0.796 1.675 0.796 2.848v0c0 1.257-0.327 2.388-0.98 3.393-0.659 1.005-1.581 1.801-2.764 2.387-1.19 0.586-2.594 0.88-4.214 0.88zM304.238 200.757l-0.419-3.141 2.681 0.544v3.267h-1.382c-0.279 0-0.489-0.061-0.628-0.184-0.14-0.128-0.223-0.29-0.252-0.486zM295.316 210.684l0.419 3.142-2.68-0.545v-3.267h1.382c0.307 0 0.525 0.061 0.653 0.184 0.123 0.128 0.198 0.29 0.226 0.486zM317.056 216.381h-3.728v-21.236h3.728zM314.584 216.381h-4.272v-1.717c0-0.251 0.056-0.455 0.167-0.612 0.112-0.151 0.279-0.24 0.503-0.268v0l3.141-0.67zM320.071 216.381h-4.272l0.461-3.267 3.141 0.67c0.223 0.028 0.391 0.117 0.503 0.268 0.112 0.156 0.168 0.36 0.167 0.612v0zM310.312 195.144h4.272l-0.461 3.268-3.141-0.671c-0.223-0.056-0.391-0.154-0.503-0.293-0.112-0.14-0.168-0.335-0.167-0.586v0zM315.129 191.123v0c-0.698 0-1.312-0.265-1.843-0.795-0.531-0.531-0.796-1.145-0.796-1.843v0c0-0.726 0.265-1.354 0.796-1.885 0.531-0.531 1.145-0.796 1.843-0.796v0c0.726 0 1.354 0.265 1.885 0.796 0.531 0.531 0.796 1.159 0.795 1.885v0c0 0.698-0.265 1.312-0.795 1.843-0.531 0.531-1.159 0.796-1.885 0.795zM329.747 216.716v0c-1.675 0-2.966-0.469-3.87-1.407-0.91-0.933-1.365-2.279-1.366-4.038v0-12.985h-2.555c-0.223 0-0.41-0.07-0.561-0.209-0.156-0.14-0.235-0.349-0.235-0.629v0-1.466l3.477-0.461 0.88-6.534c0.056-0.475 0.335-0.712 0.837-0.712v0h1.885v7.288h6.074v2.723h-6.074v12.733c0 0.894 0.218 1.555 0.654 1.986 0.43 0.436 0.994 0.653 1.692 0.653v0c0.307 0 0.642-0.084 1.005-0.251 0.363-0.168 0.698-0.335 1.005-0.503 0.307-0.168 0.531-0.251 0.671-0.251v0c0.195 0 0.363 0.112 0.502 0.335v0l1.089 1.801c-0.642 0.586-1.416 1.053-2.32 1.399-0.91 0.352-1.84 0.528-2.79 0.528zM347.381 216.674v0c-2.038 0-3.817-0.461-5.336-1.382-1.525-0.921-2.706-2.234-3.544-3.937-0.838-1.703-1.257-3.714-1.256-6.032v0c0-1.983 0.405-3.77 1.214-5.362 0.81-1.592 1.96-2.848 3.452-3.769 1.497-0.921 3.25-1.382 5.261-1.383v0c1.759 0 3.295 0.391 4.607 1.173 1.312 0.782 2.34 1.877 3.083 3.284 0.737 1.413 1.106 3.097 1.106 5.052v0c0 0.586-0.064 0.977-0.193 1.172-0.123 0.195-0.366 0.293-0.728 0.294v0h-14.116c0 0.084 0 0.173 0 0.268 0 0.101 0 0.193 0 0.276v0c0.14 2.346 0.796 4.166 1.968 5.462 1.173 1.301 2.764 1.952 4.775 1.952v0c0.866 0 1.726-0.176 2.581-0.528 0.849-0.346 1.603-0.687 2.262-1.022 0.653-0.335 1.12-0.503 1.399-0.502v0c0.307 0 0.545 0.112 0.712 0.335v0l1.047 1.382c-0.558 0.726-1.307 1.332-2.245 1.818-0.933 0.491-1.93 0.854-2.991 1.089-1.061 0.24-2.08 0.36-3.058 0.36zM341.056 203.438v0h11.561c0-1.731-0.475-3.141-1.424-4.231-0.949-1.089-2.262-1.634-3.937-1.633v0c-1.815 0-3.239 0.517-4.273 1.55-1.033 1.033-1.675 2.471-1.927 4.314z" fill="#3c3c3c" fill-rule="nonzero" stroke="none" stroke-width="1" stroke-linecap="butt" stroke-linejoin="miter" stroke-miterlimit="10" stroke-dasharray="" stroke-dashoffset="0" font-family="none" font-weight="none" font-size="none" text-anchor="none" style="mix-blend-mode: normal" data-fill-palette-color="secondary" id="text-1"></path></g></g><g transform="matrix(1,0,0,1,29.33176499999999,59.248381568811645)"><svg viewBox="0 0 316.416 66.65691686237669" height="66.65691686237669" width="316.416"><g><svg viewBox="0 0 316.416 66.65691686237669" height="66.65691686237669" width="316.416"><g><svg viewBox="0 0 316.416 66.65691686237669" height="66.65691686237669" width="316.416"><g id="textblocktransform"><svg viewBox="0 0 316.416 66.65691686237669" height="66.65691686237669" width="316.416" id="textblock"><g><svg viewBox="0 0 316.416 66.65691686237669" height="66.65691686237669" width="316.416"><g transform="matrix(1,0,0,1,0,0)"><svg width="316.416" viewBox="0 -38.25 212.88 44.85" height="66.65691686237669" data-palette-color="#528265"><path d="M13.05-35.2L13.05-35.2 13.05-22.25Q15.75-25.75 21.35-25.75L21.35-25.75Q24.55-25.75 26.55-24.15 28.55-22.55 28.55-20.13 28.55-17.7 27.1-15.8 25.65-13.9 23.15-12.7L23.15-12.7 26.15-4.9Q26.65-3.6 27.15-3.13 27.65-2.65 28.55-2.65L28.55-2.65Q30.2-2.65 31.95-4.1L31.95-4.1 32.85-2.9Q28.85 0.75 24.58 0.75 20.3 0.75 18.9-2.85L18.9-2.85 15.15-12.45Q17.9-13.1 19.73-15.15 21.55-17.2 21.55-19.1 21.55-21 20.6-21.85 19.65-22.7 18.2-22.7L18.2-22.7Q15.8-22.7 14.43-20.78 13.05-18.85 13.05-15.5L13.05-15.5 13.05 0 5.55 0 5.55-35.85Q2.8-35.15 1.35-33.4L1.35-33.4 0-34.95Q1.45-36.45 3.68-37.35 5.9-38.25 8.08-38.25 10.25-38.25 11.65-37.38 13.05-36.5 13.05-35.2ZM54.7-25L62.2-25 62.2-5.55Q62.2-4.2 62.85-3.43 63.5-2.65 64.85-2.65 66.2-2.65 67.95-4.1L67.95-4.1 68.85-2.9Q64.85 0.75 60.85 0.75L60.85 0.75Q56.1 0.75 55-3.7L55-3.7Q52.4 0.75 47.35 0.75L47.35 0.75Q41.6 0.75 38.6-2.98 35.6-6.7 35.6-12.48 35.6-18.25 38.82-22 42.05-25.75 47.85-25.75L47.85-25.75Q52.3-25.75 54.7-22.2L54.7-22.2 54.7-25ZM44.75-20.1Q43.35-17.3 43.35-12.5 43.35-7.7 44.75-4.9 46.15-2.1 49.02-2.1 51.9-2.1 53.42-4.93 54.95-7.75 54.95-12.5 54.95-17.25 53.42-20.08 51.9-22.9 49.02-22.9 46.15-22.9 44.75-20.1ZM92.3 0L92.3 0 71.59 0 71.59-2 87-23 82.84-23Q79.55-23 78.32-22.35 77.09-21.7 76.64-19.45L76.64-19.45 75.64-14.5 73.69-14.5 72.34-22.9Q72.34-23.9 72.8-24.38 73.25-24.85 73.77-24.93 74.3-25 75.39-25L75.39-25 95.09-25 95.09-23 80.05-2 84.84-2Q88.14-2 89.37-2.65 90.59-3.3 91.05-5.55L91.05-5.55 92.05-10.5 94-10.5 95.34-2.1Q95.34-1.1 94.89-0.63 94.44-0.15 93.92-0.08 93.39 0 92.3 0ZM112.54-11.55Q115.79-11.85 117.57-14.03 119.34-16.2 119.34-18.43 119.34-20.65 118.37-21.85 117.39-23.05 115.42-23.05 113.44-23.05 111.64-20.25 109.84-17.45 109.84-12.75 109.84-8.05 111.54-5.2 113.24-2.35 116.39-2.35L116.39-2.35Q121.19-2.35 124.54-6.1L124.54-6.1 125.94-5.2Q124.24-2.5 121.44-0.88 118.64 0.75 115.14 0.75L115.14 0.75Q109.19 0.75 105.64-3.18 102.09-7.1 102.09-12.65 102.09-18.2 105.87-21.98 109.64-25.75 116.34-25.75L116.34-25.75Q120.74-25.75 123.24-23.7 125.74-21.65 125.74-18.5 125.74-15.35 122.97-12.68 120.19-10 115.64-10L115.64-10Q114.09-10 112.64-10.35L112.64-10.35 112.54-11.55ZM128.69-34.95Q130.14-36.45 132.37-37.35 134.59-38.25 136.76-38.25 138.94-38.25 140.34-37.38 141.74-36.5 141.74-35.2L141.74-35.2 141.74-5.55Q141.74-4.2 142.39-3.43 143.04-2.65 144.39-2.65 145.74-2.65 147.49-4.1L147.49-4.1 148.39-2.9Q144.39 0.75 140.39 0.75L140.39 0.75Q134.24 0.75 134.24-6.6L134.24-6.6 134.24-35.85Q131.49-35.15 130.04-33.4L130.04-33.4 128.69-34.95ZM155.11-30.68Q153.94-31.85 153.94-33.5 153.94-35.15 155.11-36.33 156.29-37.5 157.94-37.5 159.59-37.5 160.76-36.33 161.94-35.15 161.94-33.5 161.94-31.85 160.76-30.68 159.59-29.5 157.94-29.5 156.29-29.5 155.11-30.68ZM156.99-25.75L156.99-25.75Q161.69-25.75 161.69-21.7L161.69-21.7 161.69-5.55Q161.69-4.2 162.34-3.43 162.99-2.65 164.34-2.65 165.69-2.65 167.44-4.1L167.44-4.1 168.34-2.9Q164.34 0.75 160.34 0.75L160.34 0.75Q154.19 0.75 154.19-6.6L154.19-6.6 154.19-23.35Q151.44-22.65 149.99-20.9L149.99-20.9 148.64-22.45Q150.09-23.95 152.31-24.85 154.54-25.75 156.99-25.75ZM173.38-22.25L169.28-22.25 169.28-24.3 173.38-24.3 173.38-29.35Q173.38-33.3 175.63-35.77 177.88-38.25 182.88-38.25L182.88-38.25Q185.33-38.25 187.56-37.35 189.78-36.45 191.23-34.95L191.23-34.95 189.88-33.4Q187.73-35.25 185.08-35.25L185.08-35.25Q180.88-35.25 180.88-29.75L180.88-29.75 180.88-24.3 186.53-24.3 186.53-22.25 180.88-22.25 180.88 6.6 173.38 6.6 173.38-22.25ZM199.48-11.55Q202.73-11.85 204.51-14.03 206.28-16.2 206.28-18.43 206.28-20.65 205.31-21.85 204.33-23.05 202.36-23.05 200.38-23.05 198.58-20.25 196.78-17.45 196.78-12.75 196.78-8.05 198.48-5.2 200.18-2.35 203.33-2.35L203.33-2.35Q208.13-2.35 211.48-6.1L211.48-6.1 212.88-5.2Q211.18-2.5 208.38-0.88 205.58 0.75 202.08 0.75L202.08 0.75Q196.13 0.75 192.58-3.18 189.03-7.1 189.03-12.65 189.03-18.2 192.81-21.98 196.58-25.75 203.28-25.75L203.28-25.75Q207.68-25.75 210.18-23.7 212.68-21.65 212.68-18.5 212.68-15.35 209.91-12.68 207.13-10 202.58-10L202.58-10Q201.03-10 199.58-10.35L199.58-10.35 199.48-11.55Z" opacity="1" transform="matrix(1,0,0,1,0,0)" fill="#528265" class="wordmark-text-0" data-fill-palette-color="primary" id="text-0"></path></svg></g></svg></g></svg></g></svg></g><g></g></svg></g></svg></g></svg></g><defs></defs></svg><rect width="375.07953" height="185.15367999999998" fill="none" stroke="none" visibility="hidden"></rect></g></svg></g></svg>